<mxfile host="app.diagrams.net" modified="2023-04-21T03:13:34.905Z" agent="Mozilla/5.0 (Windows NT 10.0; Win64; x64) AppleWebKit/537.36 (KHTML, like Gecko) Chrome/110.0.0.0 Safari/537.36" etag="yzf7lu_Cu35uPRPIXnV-" version="21.1.9" type="github">
  <diagram name="第 1 页" id="0Sq62YdhwefyZGhysYXV">
    <mxGraphModel dx="1050" dy="517" grid="1" gridSize="10" guides="1" tooltips="1" connect="1" arrows="1" fold="1" page="1" pageScale="1" pageWidth="827" pageHeight="1169" math="0" shadow="0">
      <root>
        <mxCell id="0" />
        <mxCell id="1" parent="0" />
        <mxCell id="nkLDECnxnUzfVNwRyB_I-3" value="" style="html=1;shadow=0;dashed=0;align=center;verticalAlign=middle;shape=mxgraph.arrows2.arrow;dy=0.6;dx=40;direction=south;notch=0;fillColor=#e51400;fontColor=#ffffff;strokeColor=#B20000;" vertex="1" parent="1">
          <mxGeometry x="370" y="20" width="70" height="70" as="geometry" />
        </mxCell>
        <mxCell id="nkLDECnxnUzfVNwRyB_I-4" value="&lt;font style=&quot;font-size: 18px;&quot;&gt;网边云协同运营入口&lt;/font&gt;" style="rounded=0;whiteSpace=wrap;html=1;fillColor=none;strokeColor=none;" vertex="1" parent="1">
          <mxGeometry x="440" y="32.5" width="190" height="45" as="geometry" />
        </mxCell>
        <mxCell id="nkLDECnxnUzfVNwRyB_I-27" style="edgeStyle=orthogonalEdgeStyle;rounded=0;orthogonalLoop=1;jettySize=auto;html=1;entryX=0.5;entryY=0;entryDx=0;entryDy=0;endArrow=none;endFill=0;" edge="1" parent="1" source="nkLDECnxnUzfVNwRyB_I-5" target="nkLDECnxnUzfVNwRyB_I-23">
          <mxGeometry relative="1" as="geometry">
            <Array as="points">
              <mxPoint x="405" y="220" />
              <mxPoint x="690" y="220" />
            </Array>
          </mxGeometry>
        </mxCell>
        <mxCell id="nkLDECnxnUzfVNwRyB_I-5" value="" style="rounded=1;whiteSpace=wrap;html=1;fillColor=#ffe6cc;strokeColor=#d79b00;" vertex="1" parent="1">
          <mxGeometry x="35" y="100" width="740" height="60" as="geometry" />
        </mxCell>
        <mxCell id="nkLDECnxnUzfVNwRyB_I-6" value="&lt;font style=&quot;font-size: 16px;&quot;&gt;切片运营模块&lt;/font&gt;" style="rounded=1;whiteSpace=wrap;html=1;fillColor=#fa6800;fontColor=#FFFFFF;strokeColor=#C73500;" vertex="1" parent="1">
          <mxGeometry x="50" y="112.5" width="150" height="35" as="geometry" />
        </mxCell>
        <mxCell id="nkLDECnxnUzfVNwRyB_I-7" value="&lt;font style=&quot;font-size: 16px;&quot;&gt;边缘计算运营模块&lt;/font&gt;" style="rounded=1;whiteSpace=wrap;html=1;fillColor=#fa6800;fontColor=#FFFFFF;strokeColor=#C73500;" vertex="1" parent="1">
          <mxGeometry x="330" y="112.5" width="150" height="35" as="geometry" />
        </mxCell>
        <mxCell id="nkLDECnxnUzfVNwRyB_I-8" value="&lt;font style=&quot;font-size: 16px;&quot;&gt;公有云运营模块&lt;/font&gt;" style="rounded=1;whiteSpace=wrap;html=1;fillColor=#fa6800;fontColor=#FFFFFF;strokeColor=#C73500;" vertex="1" parent="1">
          <mxGeometry x="610" y="112.5" width="150" height="35" as="geometry" />
        </mxCell>
        <mxCell id="nkLDECnxnUzfVNwRyB_I-26" style="edgeStyle=orthogonalEdgeStyle;rounded=0;orthogonalLoop=1;jettySize=auto;html=1;exitX=0.25;exitY=1;exitDx=0;exitDy=0;entryX=0.435;entryY=0.051;entryDx=0;entryDy=0;entryPerimeter=0;endArrow=none;endFill=0;" edge="1" parent="1">
          <mxGeometry relative="1" as="geometry">
            <mxPoint x="126" y="245" as="sourcePoint" />
            <mxPoint x="124.95000000000005" y="281.78499999999997" as="targetPoint" />
          </mxGeometry>
        </mxCell>
        <mxCell id="nkLDECnxnUzfVNwRyB_I-30" style="edgeStyle=orthogonalEdgeStyle;rounded=0;orthogonalLoop=1;jettySize=auto;html=1;endArrow=none;endFill=0;" edge="1" parent="1" source="nkLDECnxnUzfVNwRyB_I-9" target="nkLDECnxnUzfVNwRyB_I-12">
          <mxGeometry relative="1" as="geometry">
            <Array as="points">
              <mxPoint x="190" y="265" />
              <mxPoint x="425" y="265" />
            </Array>
          </mxGeometry>
        </mxCell>
        <mxCell id="nkLDECnxnUzfVNwRyB_I-9" value="&lt;font style=&quot;font-size: 16px;&quot;&gt;BOSS&lt;/font&gt;" style="rounded=1;whiteSpace=wrap;html=1;fillColor=#fa6800;fontColor=#FFFFFF;strokeColor=#C73500;" vertex="1" parent="1">
          <mxGeometry x="40" y="210" width="300" height="35" as="geometry" />
        </mxCell>
        <mxCell id="nkLDECnxnUzfVNwRyB_I-24" style="edgeStyle=orthogonalEdgeStyle;rounded=0;orthogonalLoop=1;jettySize=auto;html=1;entryX=0;entryY=0.5;entryDx=0;entryDy=0;fillColor=#e51400;strokeColor=#e51400;strokeWidth=4;endArrow=block;endFill=1;" edge="1" parent="1" source="nkLDECnxnUzfVNwRyB_I-10" target="nkLDECnxnUzfVNwRyB_I-12">
          <mxGeometry relative="1" as="geometry" />
        </mxCell>
        <mxCell id="nkLDECnxnUzfVNwRyB_I-28" style="edgeStyle=orthogonalEdgeStyle;rounded=0;orthogonalLoop=1;jettySize=auto;html=1;entryX=0.5;entryY=0;entryDx=0;entryDy=0;endArrow=none;endFill=0;" edge="1" parent="1" source="nkLDECnxnUzfVNwRyB_I-10" target="nkLDECnxnUzfVNwRyB_I-11">
          <mxGeometry relative="1" as="geometry" />
        </mxCell>
        <mxCell id="nkLDECnxnUzfVNwRyB_I-10" value="&lt;font style=&quot;font-size: 16px;&quot;&gt;业务编排中心&lt;/font&gt;" style="rounded=1;whiteSpace=wrap;html=1;fillColor=#60a917;fontColor=#ffffff;strokeColor=#2D7600;" vertex="1" parent="1">
          <mxGeometry x="40" y="280" width="170" height="35" as="geometry" />
        </mxCell>
        <mxCell id="nkLDECnxnUzfVNwRyB_I-29" style="edgeStyle=orthogonalEdgeStyle;rounded=0;orthogonalLoop=1;jettySize=auto;html=1;entryX=0.035;entryY=0.564;entryDx=0;entryDy=0;entryPerimeter=0;strokeWidth=4;endArrow=block;endFill=1;startArrow=block;startFill=1;strokeColor=#1ba1e2;" edge="1" parent="1" source="nkLDECnxnUzfVNwRyB_I-11" target="nkLDECnxnUzfVNwRyB_I-20">
          <mxGeometry relative="1" as="geometry" />
        </mxCell>
        <mxCell id="nkLDECnxnUzfVNwRyB_I-11" value="&lt;font style=&quot;font-size: 16px;&quot;&gt;5G核心网&lt;/font&gt;" style="rounded=1;whiteSpace=wrap;html=1;fillColor=#60a917;fontColor=#ffffff;strokeColor=#2D7600;" vertex="1" parent="1">
          <mxGeometry x="40" y="400" width="170" height="130" as="geometry" />
        </mxCell>
        <mxCell id="nkLDECnxnUzfVNwRyB_I-31" style="edgeStyle=orthogonalEdgeStyle;rounded=0;orthogonalLoop=1;jettySize=auto;html=1;entryX=0.535;entryY=0.077;entryDx=0;entryDy=0;entryPerimeter=0;endArrow=none;endFill=0;" edge="1" parent="1" source="nkLDECnxnUzfVNwRyB_I-12" target="nkLDECnxnUzfVNwRyB_I-20">
          <mxGeometry relative="1" as="geometry" />
        </mxCell>
        <mxCell id="nkLDECnxnUzfVNwRyB_I-12" value="&lt;font style=&quot;font-size: 16px;&quot;&gt;边缘云资源管理&lt;/font&gt;" style="rounded=1;whiteSpace=wrap;html=1;fillColor=#60a917;fontColor=#ffffff;strokeColor=#2D7600;" vertex="1" parent="1">
          <mxGeometry x="340" y="280" width="170" height="35" as="geometry" />
        </mxCell>
        <mxCell id="nkLDECnxnUzfVNwRyB_I-22" value="" style="group" vertex="1" connectable="0" parent="1">
          <mxGeometry x="259" y="355" width="310" height="195" as="geometry" />
        </mxCell>
        <mxCell id="nkLDECnxnUzfVNwRyB_I-20" value="" style="html=1;verticalLabelPosition=bottom;align=center;labelBackgroundColor=#ffffff;verticalAlign=top;strokeWidth=2;strokeColor=#0080F0;shadow=0;dashed=0;shape=mxgraph.ios7.icons.cloud;" vertex="1" parent="nkLDECnxnUzfVNwRyB_I-22">
          <mxGeometry width="310" height="195" as="geometry" />
        </mxCell>
        <mxCell id="nkLDECnxnUzfVNwRyB_I-21" value="" style="group" vertex="1" connectable="0" parent="nkLDECnxnUzfVNwRyB_I-22">
          <mxGeometry x="60" y="65" width="190" height="128" as="geometry" />
        </mxCell>
        <mxCell id="nkLDECnxnUzfVNwRyB_I-13" value="&lt;font style=&quot;font-size: 16px;&quot;&gt;UPF&lt;/font&gt;" style="rounded=1;whiteSpace=wrap;html=1;fillColor=#60a917;fontColor=#ffffff;strokeColor=#2D7600;" vertex="1" parent="nkLDECnxnUzfVNwRyB_I-21">
          <mxGeometry x="10" width="50" height="35" as="geometry" />
        </mxCell>
        <mxCell id="nkLDECnxnUzfVNwRyB_I-14" value="&lt;font style=&quot;font-size: 16px;&quot;&gt;MEP&lt;/font&gt;" style="rounded=1;whiteSpace=wrap;html=1;fillColor=#1ba1e2;fontColor=#ffffff;strokeColor=#006EAF;" vertex="1" parent="nkLDECnxnUzfVNwRyB_I-21">
          <mxGeometry x="70" width="50" height="35" as="geometry" />
        </mxCell>
        <mxCell id="nkLDECnxnUzfVNwRyB_I-15" value="&lt;font style=&quot;font-size: 16px;&quot;&gt;APP&lt;br&gt;&lt;/font&gt;" style="rounded=1;whiteSpace=wrap;html=1;fillColor=#60a917;fontColor=#ffffff;strokeColor=#2D7600;" vertex="1" parent="nkLDECnxnUzfVNwRyB_I-21">
          <mxGeometry x="130" width="50" height="35" as="geometry" />
        </mxCell>
        <mxCell id="nkLDECnxnUzfVNwRyB_I-16" value="&lt;font style=&quot;font-size: 16px;&quot;&gt;虚拟层&lt;/font&gt;" style="rounded=1;whiteSpace=wrap;html=1;fillColor=#1ba1e2;fontColor=#ffffff;strokeColor=#006EAF;" vertex="1" parent="nkLDECnxnUzfVNwRyB_I-21">
          <mxGeometry y="41" width="190" height="25" as="geometry" />
        </mxCell>
        <mxCell id="nkLDECnxnUzfVNwRyB_I-18" value="&lt;font style=&quot;font-size: 16px;&quot;&gt;硬件&lt;/font&gt;" style="rounded=1;whiteSpace=wrap;html=1;fillColor=#1ba1e2;fontColor=#ffffff;strokeColor=#006EAF;" vertex="1" parent="nkLDECnxnUzfVNwRyB_I-21">
          <mxGeometry y="72" width="190" height="25" as="geometry" />
        </mxCell>
        <mxCell id="nkLDECnxnUzfVNwRyB_I-19" value="&lt;font style=&quot;font-size: 16px;&quot;&gt;边缘一朵云&lt;/font&gt;" style="rounded=1;whiteSpace=wrap;html=1;fillColor=none;fontColor=#000000;strokeColor=none;" vertex="1" parent="nkLDECnxnUzfVNwRyB_I-21">
          <mxGeometry y="103" width="190" height="25" as="geometry" />
        </mxCell>
        <mxCell id="nkLDECnxnUzfVNwRyB_I-23" value="&lt;font style=&quot;font-size: 16px;&quot;&gt;移动中心云&lt;/font&gt;" style="rounded=1;whiteSpace=wrap;html=1;fillColor=#60a917;fontColor=#ffffff;strokeColor=#2D7600;" vertex="1" parent="1">
          <mxGeometry x="605" y="400" width="170" height="130" as="geometry" />
        </mxCell>
        <mxCell id="nkLDECnxnUzfVNwRyB_I-32" style="edgeStyle=orthogonalEdgeStyle;rounded=0;orthogonalLoop=1;jettySize=auto;html=1;entryX=0.035;entryY=0.564;entryDx=0;entryDy=0;entryPerimeter=0;strokeWidth=4;endArrow=block;endFill=1;startArrow=block;startFill=1;strokeColor=#1ba1e2;" edge="1" parent="1">
          <mxGeometry relative="1" as="geometry">
            <mxPoint x="546" y="465" as="sourcePoint" />
            <mxPoint x="606" y="465" as="targetPoint" />
          </mxGeometry>
        </mxCell>
        <mxCell id="nkLDECnxnUzfVNwRyB_I-33" value="&lt;font color=&quot;#3399ff&quot;&gt;N4接口&lt;/font&gt;" style="rounded=0;whiteSpace=wrap;html=1;strokeColor=none;fillColor=none;" vertex="1" parent="1">
          <mxGeometry x="200" y="430" width="79" height="25" as="geometry" />
        </mxCell>
        <mxCell id="nkLDECnxnUzfVNwRyB_I-34" value="&lt;font color=&quot;#3399ff&quot;&gt;云边协同&lt;/font&gt;" style="rounded=0;whiteSpace=wrap;html=1;strokeColor=none;fillColor=none;" vertex="1" parent="1">
          <mxGeometry x="540" y="430" width="79" height="25" as="geometry" />
        </mxCell>
      </root>
    </mxGraphModel>
  </diagram>
</mxfile>
